<?xml version="1.0" encoding="UTF-8"?>
<svg version="1.1" xmlns="http://www.w3.org/2000/svg" width="512" height="512">
<path d="M0 0 C1.01201477 0.00054382 2.02402954 0.00108765 3.06671143 0.00164795 C19.59887291 0.04238923 35.523992 0.95817716 51.75 4.375 C52.78125 4.58930664 53.8125 4.80361328 54.875 5.02441406 C101.10680927 14.94980561 143.72188765 37.60106665 177.75 70.375 C178.7390332 71.32318604 178.7390332 71.32318604 179.74804688 72.29052734 C189.23630305 81.43497479 197.9762044 90.73234009 205.75 101.375 C206.60806152 102.52605017 207.46613451 103.67709177 208.32421875 104.828125 C214.36236829 113.01930614 219.72095521 121.53304105 224.75 130.375 C225.11448242 131.00680176 225.47896484 131.63860352 225.85449219 132.28955078 C240.78473018 158.37464001 250.26385054 187.71085114 254.75 217.375 C254.92660156 218.49745117 255.10320312 219.61990234 255.28515625 220.77636719 C256.9420586 232.38947743 257.14873513 243.90679945 257.125 255.625 C257.12418427 257.14302216 257.12418427 257.14302216 257.12335205 258.69171143 C257.08261077 275.22387291 256.16682284 291.148992 252.75 307.375 C252.42854004 308.921875 252.42854004 308.921875 252.10058594 310.5 C242.17519439 356.73180927 219.52393335 399.34688765 186.75 433.375 C186.11787598 434.03435547 185.48575195 434.69371094 184.83447266 435.37304688 C175.69002521 444.86130305 166.39265991 453.6012044 155.75 461.375 C154.59894983 462.23306152 153.44790823 463.09113451 152.296875 463.94921875 C144.10569386 469.98736829 135.59195895 475.34595521 126.75 480.375 C126.11819824 480.73948242 125.48639648 481.10396484 124.83544922 481.47949219 C98.75035999 496.40973018 69.41414886 505.88885054 39.75 510.375 C38.62754883 510.55160156 37.50509766 510.72820312 36.34863281 510.91015625 C24.73552257 512.5670586 13.21820055 512.77373513 1.5 512.75 C-0.01802216 512.74918427 -0.01802216 512.74918427 -1.56671143 512.74835205 C-18.09887291 512.70761077 -34.023992 511.79182284 -50.25 508.375 C-51.796875 508.05354004 -51.796875 508.05354004 -53.375 507.72558594 C-99.60680927 497.80019439 -142.22188765 475.14893335 -176.25 442.375 C-176.90935547 441.74287598 -177.56871094 441.11075195 -178.24804688 440.45947266 C-187.73630305 431.31502521 -196.4762044 422.01765991 -204.25 411.375 C-205.10806152 410.22394983 -205.96613451 409.07290823 -206.82421875 407.921875 C-212.86236829 399.73069386 -218.22095521 391.21695895 -223.25 382.375 C-223.61448242 381.74319824 -223.97896484 381.11139648 -224.35449219 380.46044922 C-239.28473018 354.37535999 -248.76385054 325.03914886 -253.25 295.375 C-253.51490234 293.69132324 -253.51490234 293.69132324 -253.78515625 291.97363281 C-255.4420586 280.36052257 -255.64873513 268.84320055 -255.625 257.125 C-255.62445618 256.11298523 -255.62391235 255.10097046 -255.62335205 254.05828857 C-255.58261077 237.52612709 -254.66682284 221.601008 -251.25 205.375 C-251.03569336 204.34375 -250.82138672 203.3125 -250.60058594 202.25 C-240.67519439 156.01819073 -218.02393335 113.40311235 -185.25 79.375 C-184.61787598 78.71564453 -183.98575195 78.05628906 -183.33447266 77.37695312 C-174.19002521 67.88869695 -164.89265991 59.1487956 -154.25 51.375 C-153.09894983 50.51693848 -151.94790823 49.65886549 -150.796875 48.80078125 C-142.60569386 42.76263171 -134.09195895 37.40404479 -125.25 32.375 C-124.61819824 32.01051758 -123.98639648 31.64603516 -123.33544922 31.27050781 C-97.25035999 16.34026982 -67.91414886 6.86114946 -38.25 2.375 C-37.12754883 2.19839844 -36.00509766 2.02179687 -34.84863281 1.83984375 C-23.23552257 0.1829414 -11.71820055 -0.02373513 0 0 Z " fill="#000000" transform="translate(255.25,-0.375)"/>
<path d="M0 0 C10.12471391 0 10.12471391 0 13.68554688 1.24658203 C14.89989662 1.66012184 14.89989662 1.66012184 16.13877869 2.08201599 C16.99016922 2.38752884 17.84155975 2.69304169 18.71875 3.0078125 C19.63753433 3.32480606 20.55631866 3.64179962 21.50294495 3.96839905 C24.5065604 5.00786962 27.50307742 6.06640506 30.5 7.125 C32.60945614 7.85858402 34.7194085 8.59074254 36.82983398 9.3215332 C41.14119588 10.81604124 45.45014414 12.31721432 49.75732422 13.82373047 C58.00823215 16.70583287 66.28159681 19.52116375 74.55612183 22.33456421 C78.70811272 23.74751205 82.85787965 25.16695888 87.0078125 26.5859375 C93.06658926 28.65694015 99.12621174 30.72544157 105.1867218 32.79136658 C108.75113354 34.00662907 112.31516104 35.22301572 115.87911987 36.43960571 C117.57208646 37.01722936 119.26521964 37.59436495 120.95852661 38.17098999 C123.28399235 38.96296127 125.60886039 39.75666321 127.93359375 40.55078125 C128.96944107 40.90283127 128.96944107 40.90283127 130.0262146 41.26199341 C134.77200483 42.88600242 134.77200483 42.88600242 137 44 C137 54.56 137 65.12 137 76 C134.58558594 76.76441406 132.17117188 77.52882813 129.68359375 78.31640625 C110.34523424 84.44111387 91.01222692 90.58240479 71.6875 96.75 C70.19639709 97.22586044 70.19639709 97.22586044 68.6751709 97.71133423 C59.16600115 100.74657437 49.65767452 103.78433791 40.15625 106.84375 C39.50002151 107.05501526 38.84379303 107.26628052 38.16767883 107.48394775 C35.25859953 108.42082548 32.35000619 109.359172 29.44213867 110.29980469 C27.51319503 110.92227806 25.5825598 111.53954546 23.64990234 112.15039062 C21.90811551 112.7088408 20.1735108 113.2903069 18.44775391 113.89648438 C11.650819 116.18300472 7.76833507 116 0 116 C0 106.1 0 96.2 0 86 C12.49999459 81.99514736 25.08977092 78.40991091 37.73876953 74.90722656 C40.90005564 74.02780306 44.05796622 73.13729455 47.21484375 72.2421875 C62.42019613 67.93717361 77.68829001 63.90918174 93 60 C90.79303085 59.24579766 88.58451153 58.49669263 86.375 57.75 C85.14523437 57.33234375 83.91546875 56.9146875 82.6484375 56.484375 C77.71446913 54.8661368 72.71565401 53.48500727 67.72021484 52.07080078 C61.65993946 50.32645324 55.64373963 48.44431357 49.625 46.5625 C48.3436256 46.16296287 47.06221242 45.76355013 45.78076172 45.36425781 C43.29113502 44.58806319 40.80170551 43.8112357 38.3125 43.03369141 C35.57397927 42.1791147 32.83443413 41.32807257 30.09375 40.48046875 C22.39551813 38.09603649 14.74132905 35.60328324 7.109375 33.015625 C4.76791946 32.25082796 2.38964995 31.59741249 0 31 C0 20.77 0 10.54 0 0 Z " fill="#B9EBDA" transform="translate(318,196)"/>
<path d="M0 0 C0 9.9 0 19.8 0 30 C-6.61675781 32.06121094 -6.61675781 32.06121094 -13.3671875 34.1640625 C-16.20188359 35.04798354 -19.03654601 35.93200994 -21.87109375 36.81640625 C-26.34652916 38.21275892 -30.82206847 39.60877053 -35.29833984 41.00244141 C-39.61355357 42.34606924 -43.92810085 43.69182047 -48.2421875 45.0390625 C-48.94273003 45.2577021 -49.64327255 45.47634171 -50.36504364 45.70160675 C-59.11115917 48.4336782 -67.84616149 51.19217154 -76.49581909 54.21914673 C-80.68547018 55.66171421 -84.86070611 56.68204284 -89.19699097 57.5519104 C-91.00979371 57.83789787 -91.00979371 57.83789787 -92 59 C-91.24565674 59.1966626 -90.49131348 59.3933252 -89.71411133 59.59594727 C-75.99328356 63.21262871 -62.34567795 67.09245163 -48.6875 70.9375 C-44.91732482 71.99805098 -41.14706813 73.05831129 -37.3767395 74.11831665 C-34.94685194 74.80154042 -32.51706088 75.48510751 -30.08737183 76.16903687 C-24.81732988 77.6514783 -19.5461839 79.12906403 -14.26806641 80.58251953 C-13.4221846 80.81564346 -12.5763028 81.0487674 -11.70478821 81.28895569 C-10.17535327 81.70951317 -8.64542966 82.12829952 -7.11491394 82.54490662 C-2.21872699 83.8906365 -2.21872699 83.8906365 0 85 C0 94.9 0 104.8 0 115 C-8.99142264 115 -13.91739115 114.91482497 -21.6875 111.8125 C-23.43880696 111.15668167 -25.19143537 110.50438227 -26.9453125 109.85546875 C-27.80286133 109.53497559 -28.66041016 109.21448242 -29.54394531 108.88427734 C-33.00835215 107.63695313 -36.51775657 106.61566874 -40.0625 105.625 C-47.62238963 103.48509682 -55.05572382 101.01024349 -62.5 98.5 C-70.65176296 95.75264951 -78.8026165 93.10147241 -87.07348633 90.73779297 C-92.73438645 89.1096302 -98.31095927 87.26873345 -103.8894043 85.37915039 C-111.13878822 82.92972664 -118.43344726 80.62949581 -125.7409668 78.35986328 C-127.07188354 77.94196533 -127.07188354 77.94196533 -128.4296875 77.515625 C-129.60893799 77.14872559 -129.60893799 77.14872559 -130.81201172 76.77441406 C-133 76 -133 76 -137 74 C-137 63.77 -137 53.54 -137 43 C-130.76325943 40.50530377 -124.63996503 38.12106582 -118.27734375 36.0390625 C-117.47090927 35.77212082 -116.66447479 35.50517914 -115.83360291 35.23014832 C-114.10308159 34.65745017 -112.37213877 34.08602431 -110.64080811 33.51577759 C-105.9572577 31.97248264 -101.27747705 30.41784235 -96.59765625 28.86328125 C-95.63508911 28.54366928 -94.67252197 28.22405731 -93.68078613 27.89476013 C-84.58594674 24.87067563 -75.51049876 21.79110643 -66.44177246 18.68969727 C-63.88277814 17.81515819 -61.32281675 16.94349895 -58.76269531 16.07226562 C-51.4897387 13.59304614 -44.22543078 11.09680901 -36.99707031 8.48997498 C-34.07925272 7.43823056 -31.1570534 6.39896185 -28.23468018 5.35995483 C-26.26616678 4.65324203 -24.30593185 3.92648536 -22.34521484 3.19848633 C-21.15234863 2.77462646 -19.95948242 2.3507666 -18.73046875 1.9140625 C-17.71364014 1.5423291 -16.69681152 1.1705957 -15.64916992 0.78759766 C-12 0 -12 0 0 0 Z " fill="#B9EBDA" transform="translate(194,197)"/>
<path d="M0 0 C10.56 0 21.12 0 32 0 C30.87494215 6.75034711 30.87494215 6.75034711 29.48461914 10.32348633 C29.17627136 11.12412506 28.86792358 11.92476379 28.55023193 12.74966431 C28.21525696 13.6018454 27.88028198 14.45402649 27.53515625 15.33203125 C27.18608215 16.23303558 26.83700806 17.13403992 26.47735596 18.06234741 C25.34467853 20.98128089 24.20371794 23.8968963 23.0625 26.8125 C22.28174152 28.81991141 21.50138791 30.82748033 20.72143555 32.83520508 C16.29844058 44.20344745 11.84996822 55.56259705 7.22094727 66.84887695 C5.08523616 72.09860553 3.14219615 77.39741856 1.28125 82.75 C-2.48016999 93.54139157 -6.65742911 104.16798043 -10.8125 114.8125 C-12.07241206 118.04875017 -13.33140735 121.28535608 -14.59037781 124.52197266 C-15.44823245 126.72717133 -16.30639798 128.9322491 -17.16487122 131.13720703 C-20.05912506 138.57264927 -22.94076526 146.01286405 -25.8125 153.45703125 C-26.19500412 154.4484462 -26.57750824 155.43986115 -26.97160339 156.46131897 C-28.43731033 160.26110128 -29.90265046 164.0610239 -31.36660767 167.86148071 C-35.03467474 177.38273248 -38.72505116 186.89067381 -42.56713867 196.34326172 C-44.46807013 201.19453985 -46.21937631 206.10328486 -48 211 C-58.56 211 -69.12 211 -80 211 C-79.16356217 205.98137302 -77.94116241 201.85302656 -76.0703125 197.203125 C-75.76854095 196.43833328 -75.46676941 195.67354156 -75.15585327 194.88557434 C-74.4976663 193.21842853 -73.83697164 191.55227107 -73.17407227 189.88699341 C-71.3445152 185.28813966 -69.53620355 180.68093795 -67.7265625 176.07421875 C-67.34280457 175.09831284 -66.95904663 174.12240692 -66.56365967 173.1169281 C-62.1213804 161.79883654 -57.80815065 150.43216943 -53.5 139.0625 C-52.69470382 136.93919292 -51.88936524 134.81590192 -51.08398438 132.69262695 C-49.49116018 128.4922904 -47.89907914 124.29167319 -46.30761719 120.09082031 C-28.92032668 74.1952955 -28.92032668 74.1952955 -19.89038086 51.40820312 C-13.12571818 34.3243678 -6.57400369 17.15787684 0 0 Z " fill="#B9ECDB" transform="translate(281,151)"/>
</svg>
